<?xml version="1.0" encoding="UTF-8" standalone="no"?>
<svg
   width="100%"
   height="100%"
   viewBox="0 0 2292 834"
   version="1.1"
   xml:space="preserve"
   style="fill-rule:evenodd;clip-rule:evenodd;stroke-linejoin:round;stroke-miterlimit:2;"
   id="svg176"
   sodipodi:docname="fallout76-logo-black.svg"
   inkscape:version="1.2.2 (732a01da63, 2022-12-09)"
   xmlns:inkscape="http://www.inkscape.org/namespaces/inkscape"
   xmlns:sodipodi="http://sodipodi.sourceforge.net/DTD/sodipodi-0.dtd"
   xmlns="http://www.w3.org/2000/svg"
   xmlns:svg="http://www.w3.org/2000/svg"><defs
   id="defs180" /><sodipodi:namedview
   id="namedview178"
   pagecolor="#ffffff"
   bordercolor="#000000"
   borderopacity="0.25"
   inkscape:showpageshadow="2"
   inkscape:pageopacity="0.0"
   inkscape:pagecheckerboard="true"
   inkscape:deskcolor="#d1d1d1"
   showgrid="false"
   inkscape:zoom="0.52617801"
   inkscape:cx="779.20398"
   inkscape:cy="416.20896"
   inkscape:window-width="2560"
   inkscape:window-height="1369"
   inkscape:window-x="-8"
   inkscape:window-y="-8"
   inkscape:window-maximized="1"
   inkscape:current-layer="svg176"><inkscape:grid
     type="xygrid"
     id="grid340" /></sodipodi:namedview>
    <g
   transform="matrix(3.74455,0,0,1.69377,0,0)"
   id="g174">
        <g
   transform="matrix(1.11273,0,0,2.46,-34.3207,-96.3804)"
   id="g124">
            <path
   d="M492.955,143.042L486.136,172.859C486.136,172.859 483.662,181.597 489.619,181.597C495.629,181.597 496.899,173.127 496.899,173.127L503.719,143.042C503.719,143.042 506.126,135.02 500.108,135.02C494.092,135.02 492.955,143.042 492.955,143.042Z"
   style="fill:rgb(220,180,42);fill-rule:nonzero;"
   id="path122" />
        </g>
        <g
   transform="matrix(1.11273,0,0,2.46,-34.3207,-96.3804)"
   id="g128">
            <path
   d="M525.166,115.751L508.52,115.751L510.111,106.896C510.111,106.896 511.534,99.673 507.995,99.171C503.832,98.58 502.467,102.219 501.2,106.457C499.933,110.695 496.362,127.614 496.362,127.614C496.362,127.614 496.828,127.248 498.612,126.451C500.923,125.418 504.662,124.962 507.688,125.005C510.714,125.049 513.846,126.015 515.474,127.167C519.765,130.203 520.271,134.227 520.271,137.292C520.271,138.892 518.831,152.402 517.956,157.761C515.86,170.606 512.484,179.241 508.159,183.895C503.852,188.528 497.247,191.208 487.81,191.208C476.603,191.208 472.343,186.27 470.114,180.896C467.886,175.522 469.306,165.264 469.918,162.677C470.679,159.459 477.192,131.218 479.945,120.732C482.697,110.246 486.63,98.45 493.184,93.076C499.737,87.702 509.568,89.274 515.336,89.668C521.103,90.061 525.298,94.387 526.346,100.416C527.395,106.445 525.166,115.751 525.166,115.751ZM446.914,191.208L427.515,191.208L459.322,105.921L431.709,105.921L435.554,89.668L480.994,89.668L475.926,110.115L446.914,191.208ZM553.158,122.4C551.197,113.978 547.884,106.078 543.444,98.946L550.747,87.619L541,77.871L540.188,77.061L539.378,76.249L529.631,66.502L518.302,73.805C511.171,69.365 503.271,66.052 494.849,64.091L492.002,50.916L462.139,50.916L459.293,64.091C450.87,66.052 442.971,69.365 435.838,73.805L424.511,66.502L413.142,77.871L403.395,87.619L410.697,98.946C406.257,106.078 402.944,113.978 400.983,122.4L387.808,125.247L387.808,155.11L400.983,157.956C402.944,166.378 406.257,174.278 410.697,181.411L403.395,192.738L413.142,202.485L413.952,203.296L414.764,204.107L424.511,213.854L435.838,206.551C442.971,210.992 450.87,214.305 459.293,216.265L462.139,229.441L492.002,229.441L494.849,216.265C503.271,214.305 511.171,210.992 518.302,206.551L529.631,213.854L539.378,204.107L540.188,203.296L541,202.485L550.747,192.738L543.444,181.411C547.884,174.278 551.197,166.378 553.158,157.956L566.333,155.11L566.333,125.247L553.158,122.4Z"
   style="fill:rgb(220,180,42);fill-rule:nonzero;"
   id="path126" />
        </g>
        <g
   transform="matrix(1.11273,0,0,2.46,-34.3207,-96.3804)"
   id="g132">
            <path
   d="M415.213,211.113L56.55,211.113C53.604,211.113 51.106,209.992 49.514,207.955C47.843,205.817 47.349,202.932 48.121,199.833L77.741,81.032C79.362,74.531 85.959,69.243 92.445,69.243L415.216,69.243L417.313,67.146L92.445,67.146C85.055,67.146 77.546,73.148 75.707,80.524L46.086,199.324C45.154,203.064 45.785,206.588 47.862,209.246C49.859,211.802 52.944,213.21 56.55,213.21L417.31,213.21L415.213,211.113Z"
   style="fill:rgb(220,180,42);fill-rule:nonzero;"
   id="path130" />
        </g>
        <g
   transform="matrix(1.11273,0,0,2.46,-34.3207,-96.3804)"
   id="g136">
            <path
   d="M145.298,90.525L141.469,105.23L114.254,105.23L107.485,131.529L128.546,131.529L124.375,147.693L103.314,147.693L91.895,191.944L73.501,191.944L99.827,90.525L145.298,90.525Z"
   style="fill:#000000;fill-rule:nonzero;fill-opacity:1"
   id="path134" />
        </g>
        <g
   transform="matrix(1.11273,0,0,2.46,-34.3207,-96.3804)"
   id="g140">
            <path
   d="M155.896,156.57L152.136,156.57C150.312,156.659 148.864,157.045 147.793,157.729C146.722,158.415 145.914,159.132 145.367,159.882C144.819,160.634 144.204,162.333 143.52,164.983L141.674,172.271C141.218,174.081 140.99,175.473 140.99,176.443C140.99,177.46 141.195,178.321 141.606,179.027C141.97,179.689 142.996,180.043 144.683,180.087C146.415,180.087 147.645,179.734 148.375,179.027C149.149,178.321 149.811,177.46 150.358,176.443C150.905,175.473 151.406,174.081 151.862,172.271L155.896,156.57ZM149.948,140.274L132.921,140.274L134.495,133.981C135.315,131.243 136.795,128.548 138.939,125.899C141.218,123.206 143.93,121.152 147.076,119.739C149.993,118.413 152.796,117.685 155.486,117.552L167.042,117.552C169.914,117.552 172.557,118.281 174.974,119.739C177.343,121.152 178.984,123.206 179.897,125.899C180.718,128.548 180.786,131.243 180.102,133.981L165.264,191.613L146.871,191.613L148.512,185.187C146.961,186.999 144.888,188.688 142.29,190.256C139.691,191.823 136.978,192.684 134.152,192.839C131.326,192.993 128.647,192.375 126.118,190.984C123.588,189.593 122.129,187.352 121.742,184.261C121.354,181.169 122.016,176.532 123.725,170.349C125.435,164.166 127.394,159.662 129.604,156.835C131.816,154.009 134.448,151.923 137.503,150.576C140.556,149.228 145.503,148.511 152.341,148.422L158.017,148.422L162.119,132.457C162.347,131.265 162.461,130.315 162.461,129.609C162.461,128.593 162.255,127.732 161.845,127.025C161.48,126.319 160.432,125.965 158.7,125.965C156.922,126.01 155.714,126.363 155.076,127.025C154.3,127.732 153.64,128.593 153.093,129.609C152.546,130.581 152.044,131.972 151.588,133.783L149.948,140.274Z"
   style="fill:#000000;fill-rule:nonzero;fill-opacity:1"
   id="path138" />
        </g>
        <g
   transform="matrix(1.11273,0,0,2.46,-34.3207,-96.3804)"
   id="g144">
            <path
   d="M188.787,191.944L171.997,191.944L198.185,90.525L214.975,90.525L188.787,191.944Z"
   style="fill:#000000;fill-rule:nonzero;fill-opacity:1"
   id="path142" />
        </g>
        <g
   transform="matrix(1.11273,0,0,2.46,-34.3207,-96.3804)"
   id="g148">
            <path
   d="M212.65,191.944L195.86,191.944L222.048,90.525L238.838,90.525L212.65,191.944Z"
   style="fill:#000000;fill-rule:nonzero;fill-opacity:1"
   id="path146" />
        </g>
        <g
   transform="matrix(1.11273,0,0,2.46,-34.3207,-96.3804)"
   id="g152">
            <path
   d="M307.969,118.281L294.293,171.343C293.836,173.154 293.609,174.545 293.609,175.517C293.609,176.532 293.814,177.394 294.225,178.1C294.589,178.762 295.387,179.116 296.618,179.159C297.894,179.159 298.897,178.806 299.627,178.1C300.401,177.394 301.063,176.532 301.609,175.517C302.156,174.545 302.657,173.154 303.114,171.343L316.79,118.281L335.183,118.281L316.516,190.687L298.122,190.687L299.763,184.261C298.76,185.63 297.165,187.208 294.977,188.997C292.789,190.786 290.281,191.757 287.456,191.912C284.628,192.065 282.064,191.447 279.763,190.056C277.46,188.666 275.944,186.424 275.216,183.333C274.486,180.242 274.713,176.223 275.9,171.276L289.575,118.281L307.969,118.281Z"
   style="fill:#000000;fill-rule:nonzero;fill-opacity:1"
   id="path150" />
        </g>
        <g
   transform="matrix(1.11273,0,0,2.46,-34.3207,-96.3804)"
   id="g156">
            <path
   d="M361.986,129.476L350.979,172.204C350.021,175.87 349.61,177.967 349.747,178.497C349.929,178.984 350.271,179.358 350.772,179.623C351.183,179.977 351.684,180.153 352.276,180.153L356.722,180.153L353.576,192.275L344.755,192.275C341.791,192.275 339.068,191.757 336.584,190.719C334.099,189.682 332.447,187.827 331.627,185.154C330.807,182.483 330.828,179.292 331.695,175.582L343.593,129.476L337.849,129.476L340.448,119.341L346.191,119.341L351.661,98.209L372.105,90.326L364.584,119.341L372.38,119.341L369.781,129.476L361.986,129.476Z"
   style="fill:#000000;fill-rule:nonzero;fill-opacity:1"
   id="path154" />
        </g>
        <g
   transform="matrix(1.11273,0,0,2.46,-34.3207,-96.3804)"
   id="g160">
            <path
   d="M256.07,117.022C253.243,117.022 250.28,117.642 247.181,118.877C244.081,120.114 241.425,122.057 239.215,124.707C237.003,127.357 235.442,130.271 234.531,133.451L228.24,157.762L265.301,117.022L256.07,117.022Z"
   style="fill:#000000;fill-rule:nonzero;fill-opacity:1"
   id="path158" />
        </g>
        <g
   transform="matrix(1.11273,0,0,2.46,-34.3207,-96.3804)"
   id="g164">
            <path
   d="M238.497,192.342L250.531,159.684L227.762,159.684L223.659,175.582C223.02,178.409 223.088,181.146 223.864,183.796C224.685,186.491 226.302,188.566 228.719,190.023C231.089,191.525 234.348,192.297 238.497,192.342Z"
   style="fill:#000000;fill-rule:nonzero;fill-opacity:1"
   id="path162" />
        </g>
        <g
   transform="matrix(1.11273,0,0,2.46,-34.3207,-96.3804)"
   id="g168">
            <path
   d="M279.865,125.435C278.999,122.742 277.38,120.665 275.01,119.208C274.417,118.855 273.779,118.546 273.096,118.281L276.856,103.708L253.95,148.29L276.31,148.29L280.139,133.451C280.823,130.713 280.73,128.042 279.865,125.435Z"
   style="fill:#000000;fill-rule:nonzero;fill-opacity:1"
   id="path166" />
        </g>
        <g
   transform="matrix(1.11273,0,0,2.46,-34.3207,-96.3804)"
   id="g172">
            <path
   d="M241.02,200.429L250.326,192.077C252.378,192.033 254.702,191.514 257.301,190.521C259.898,189.526 262.258,187.86 264.378,185.519C266.498,183.178 268.127,179.867 269.267,175.582L275.831,150.144L238.272,200.429L241.02,200.429Z"
   style="fill:#000000;fill-rule:nonzero;fill-opacity:1"
   id="path170" />
        </g>
    </g>
</svg>
