<?xml version="1.0" encoding="UTF-8" standalone="no"?>
<!-- Created with Inkscape (http://www.inkscape.org/) -->

<svg
   width="512"
   height="512"
   viewBox="0 0 512 512"
   version="1.1"
   id="svg1"
   xml:space="preserve"
   sodipodi:docname="app-icon.svg"
   inkscape:version="1.3.2 (091e20ef0f, 2023-11-25, custom)"
   xmlns:inkscape="http://www.inkscape.org/namespaces/inkscape"
   xmlns:sodipodi="http://sodipodi.sourceforge.net/DTD/sodipodi-0.dtd"
   xmlns="http://www.w3.org/2000/svg"
   xmlns:svg="http://www.w3.org/2000/svg"><sodipodi:namedview
     id="namedview1"
     pagecolor="#ffffff"
     bordercolor="#000000"
     borderopacity="0.25"
     inkscape:showpageshadow="2"
     inkscape:pageopacity="0.0"
     inkscape:pagecheckerboard="true"
     inkscape:deskcolor="#d1d1d1"
     inkscape:document-units="mm"
     inkscape:zoom="2.2753906"
     inkscape:cx="256"
     inkscape:cy="256"
     inkscape:window-width="2560"
     inkscape:window-height="1371"
     inkscape:window-x="0"
     inkscape:window-y="0"
     inkscape:window-maximized="1"
     inkscape:current-layer="layer1" /><defs
     id="defs1"><linearGradient
       id="swatch3"
       inkscape:swatch="solid"><stop
         style="stop-color:#d40000;stop-opacity:1;"
         offset="0"
         id="stop3" /></linearGradient></defs><g
     inkscape:label="Ebene 1"
     inkscape:groupmode="layer"
     id="layer1"><path
       id="rect3"
       style="opacity:1;fill:#1c1c1c;fill-opacity:1;stroke:none;stroke-width:21.8154;stroke-opacity:1"
       d="m 204.86347,12.984798 100.19233,-0.24514 16.96828,62.54634 54.67017,32.697912 62.99128,-18.240032 51.65603,84.719182 -48.11442,51.03936 0.74612,60.16589 48.93954,48.02255 -51.60768,89.1353 -63.99482,-17.94762 -55.72127,30.70503 -17.7152,65.57135 -97.33497,-0.73379 -20.37937,-64.9503 -52.9931,-31.30013 -63.578058,17.68347 -50.70285,-86.22177 45.41017,-45.9239 0.63294,-63.62097 -45.1052,-47.32466 48.83246,-85.963007 63.306008,15.082957 56.68881,-31.3512 z"
       sodipodi:nodetypes="ccccccccccccccccccccccccc"
       inkscape:label="background" /><path
       id="path1"
       style="opacity:1;fill:#ee9a06;fill-opacity:1"
       d="m 203.95117,1.4199219 c -4.98132,0 -7.85163,4.1431892 -8.99219,8.9921871 -0.0384,0.0302 -14.10156,60.479248 -14.10156,60.479248 -17.27998,5.341227 -34.98162,16.566476 -47.17773,27.067627 L 73.853516,80.728516 C 69.066726,79.350037 64.063879,79.682474 61.5625,83.990234 L 9.6464844,173.39844 c -2.5013694,4.30775 -0.3559708,8.86669 3.2617186,12.29101 l 45.820313,43.37305 c -4.140445,19.3744 -4.144883,31.09973 -0.462891,54.14844 l -44.878906,43.14844 c -3.5911037,3.45217 -5.8129264,7.94852 -3.337891,12.27148 l 51.371094,89.72266 c 2.475035,4.32295 7.496386,4.75241 12.271484,3.33398 l 59.468754,-17.89062 c 13.32381,12.314 29.749,20.9627 46.66601,27.21093 l 15.02344,60.41797 c 1.20202,4.83413 3.99327,8.99988 8.97461,9.00977 l 103.38867,0.20507 c 4.98132,0.01 7.8596,-4.12788 9.00977,-8.9746 l 14.76246,-60.94238 c 17.26932,-5.37555 35.60277,-16.50405 47.77802,-27.02938 l 59.39897,17.17279 c 4.78951,1.36898 9.79233,1.02756 12.28516,-3.28516 l 51.73828,-89.51172 c 2.49281,-4.31271 0.33932,-8.86801 -3.28516,-12.28515 l -45.90625,-43.28125 c 4.102,-19.38258 4.08123,-31.10904 0.35352,-54.15039 l 44.79492,-43.23633 c 3.58424,-3.4593 5.79611,-7.95931 3.3125,-12.27735 L 449.90625,83.21875 c -2.48361,-4.318034 -7.50507,-4.738446 -12.27734,-3.310547 l -59.4336,18.009766 C 364.8471,85.630417 348.40398,77.013489 331.47461,70.798828 L 316.33203,10.412109 c -1.21161,-4.831736 -4.01084,-8.9921871 -8.99219,-8.9921871 z m 93.45313,20.3417971 13.14453,52.888672 c 1.01598,4.088246 3.26432,9.149426 6.92187,12.662109 20.86484,8.348044 31.82545,14.49281 53.89649,31.0918 2.4387,0.81455 4.66072,0.93303 7.01562,0.86523 3.84998,-0.11076 11.35854,-2.06755 11.36914,-2.07031 l 0.002,0.002 47.47656,-14.57031 41.63672,71.74023 -39.29297,37.76368 c -3.03732,2.91899 -6.30214,7.39057 -7.52344,12.3125 3.16638,22.24868 3.30441,34.81459 -0.0801,62.22265 0.50979,2.52009 1.51517,4.50421 2.74805,6.51172 2.01699,3.28443 7.4668,8.82813 7.4668,8.82813 l 0.008,-0.0117 36.8418,34.82617 -41.22852,71.97656 -52.36719,-15.08984 c -4.1401,-1.90309 -11.77298,-1.83842 -14.5777,0.32019 -17.69157,13.61604 -29.22091,21.32401 -53.7387,30.44153 -1.61147,0.59926 -3.14001,3.56593 -4.25977,5.63867 -1.82258,3.37351 -3.86356,10.76692 -3.88476,10.84375 h -0.008 l -11.54944,48.99609 -83.62048,0.16211 -13.04101,-52.91601 c -1.00787,-4.09025 -3.2459,-9.15586 -6.89649,-12.67579 -20.84823,-8.38943 -31.79593,-14.55452 -53.83398,-31.19726 -2.43708,-0.81939 -4.65865,-0.94203 -7.01368,-0.87891 -3.85018,0.10313 -11.36243,2.04414 -11.37304,2.04688 l -0.002,-0.002 -47.505854,14.47657 -41.494141,-71.82227 39.367187,-37.6875 c 3.043102,-2.91297 6.317767,-7.37738 7.548829,-12.29687 -3.122228,-22.25493 -3.235736,-34.82137 0.203125,-62.22266 -0.504789,-2.5211 -1.507435,-4.50568 -2.736328,-6.51562 -2.010467,-3.28842 -7.449219,-8.84375 -7.449219,-8.84376 l -0.0078,0.0117 -36.771484,-34.89843 41.371094,-71.89649 52.335931,15.19531 c 4.0456,1.17432 9.55144,1.7683 14.42578,0.36915 17.69654,-13.85152 28.51567,-20.244639 53.95313,-30.996099 1.929,-1.699884 3.14566,-3.560347 4.26953,-5.630859 1.83844,-3.386774 3.74929,-12.463418 3.75,-12.466797 h 0.01 l 11.54882,-47.177734 z"
       sodipodi:nodetypes="scccccccccccccccccccccccccccccccccsssccccccccccccscccccssscccccccscccccccccccccccccccc"
       inkscape:label="outline" /><circle
       style="opacity:1;fill:none;fill-opacity:1;stroke:#ee9a06;stroke-width:21.8154;stroke-linecap:butt;stroke-linejoin:miter;stroke-dasharray:none;stroke-opacity:1;paint-order:normal"
       id="path3"
       cx="258.48932"
       cy="255.72029"
       r="90.075249"
       inkscape:label="ring" /></g></svg>
